<svg xmlns="http://www.w3.org/2000/svg" width="19.800" height="19.800" viewBox="0 0 19.800 19.800" fill="none">
  <path d="M 9.09 10.915 C 9.003 11.392 9.409 11.791 9.894 11.791 C 10.378 11.791 10.745 11.384 10.907 10.928 C 11.12 10.326 11.553 9.965 11.984 9.605 C 12.581 9.105 13.175 8.609 13.175 7.479 C 13.175 5.731 11.759 4.702 9.955 4.702 C 8.317 4.702 7.081 5.566 6.719 6.968 C 6.598 7.438 7.005 7.839 7.49 7.839 C 7.974 7.839 8.329 7.42 8.554 6.992 C 8.795 6.531 9.259 6.268 9.886 6.263 C 10.75 6.27 11.351 6.768 11.351 7.548 C 11.351 8.181 10.955 8.482 10.49 8.836 C 9.945 9.25 9.304 9.738 9.09 10.915 Z" fill="currentColor" fill-rule="nonzero"></path>
  <path d="M 8.781 13.96 C 8.774 14.582 9.244 15.038 9.9 15.038 C 10.543 15.038 11.012 14.582 11.019 13.96 C 11.012 13.338 10.543 12.882 9.9 12.882 C 9.244 12.882 8.774 13.338 8.781 13.96 Z" fill="currentColor" fill-rule="nonzero"></path>
  <path d="M 9.9 0 C 4.432 0 0 4.432 0 9.9 C 0 15.368 4.432 19.8 9.9 19.8 C 15.368 19.8 19.8 15.368 19.8 9.9 C 19.8 4.432 15.368 0 9.9 0 Z M 1.8 9.9 C 1.8 5.426 5.426 1.8 9.9 1.8 C 14.373 1.8 18 5.426 18 9.9 C 18 14.374 14.373 18 9.9 18 C 5.426 18 1.8 14.374 1.8 9.9 Z" fill="currentColor" fill-rule="evenodd"></path>
</svg>