<svg xmlns="http://www.w3.org/2000/svg" width="19.800" height="19.800" viewBox="0 0 19.800 19.800" fill="none">
  <path d="M 7.536 6.264 C 7.185 5.913 6.615 5.913 6.263 6.264 C 5.912 6.615 5.912 7.185 6.263 7.537 L 8.627 9.9 L 6.263 12.264 C 5.912 12.615 5.912 13.185 6.263 13.537 C 6.615 13.888 7.185 13.888 7.536 13.537 L 9.9 11.173 L 12.263 13.537 C 12.615 13.888 13.185 13.888 13.536 13.537 C 13.888 13.185 13.888 12.615 13.536 12.264 L 11.173 9.9 L 13.536 7.537 C 13.888 7.185 13.888 6.615 13.536 6.264 C 13.185 5.913 12.615 5.913 12.263 6.264 L 9.9 8.628 L 7.536 6.264 Z" fill="currentColor" fill-rule="nonzero"></path>
  <path d="M 9.9 0 C 4.432 0 0 4.432 0 9.9 C 0 15.368 4.432 19.8 9.9 19.8 C 15.367 19.8 19.8 15.368 19.8 9.9 C 19.8 4.432 15.367 0 9.9 0 Z M 1.8 9.9 C 1.8 5.426 5.426 1.8 9.9 1.8 C 14.373 1.8 18 5.426 18 9.9 C 18 14.374 14.373 18 9.9 18 C 5.426 18 1.8 14.374 1.8 9.9 Z" fill="currentColor" fill-rule="evenodd"></path>
</svg>