<svg xmlns="http://www.w3.org/2000/svg" width="19.800" height="19.800" viewBox="0 0 19.800 19.800" fill="none">
  <path d="M 0 9.9 C 0 4.432 4.432 0 9.9 0 C 15.367 0 19.8 4.432 19.8 9.9 C 19.8 15.368 15.367 19.8 9.9 19.8 C 4.432 19.8 0 15.368 0 9.9 Z M 10.9 5.9 C 10.9 6.452 10.452 6.9 9.9 6.9 C 9.348 6.9 8.9 6.452 8.9 5.9 C 8.9 5.348 9.348 4.9 9.9 4.9 C 10.452 4.9 10.9 5.348 10.9 5.9 Z M 9.9 8.5 C 10.397 8.5 10.8 8.903 10.8 9.4 L 10.8 13.9 C 10.8 14.397 10.397 14.8 9.9 14.8 C 9.403 14.8 9 14.397 9 13.9 L 9 9.4 C 9 8.903 9.403 8.5 9.9 8.5 Z" fill="currentColor" fill-rule="evenodd"></path>
</svg>