<svg xmlns="http://www.w3.org/2000/svg" width="20.800" height="18.845" viewBox="0 0 20.800 18.845" fill="none">
  <path d="M 2.891 12.212 C 3.214 12.298 3.57 12.329 4 12.339 L 4 16.195 C 4 17.658 5.187 18.845 6.65 18.845 C 8.114 18.845 9.3 17.658 9.3 16.195 L 9.3 12.706 L 15.074 14.69 C 15.229 14.744 15.397 14.802 15.545 14.838 C 15.705 14.878 15.953 14.922 16.232 14.854 C 16.581 14.769 16.884 14.553 17.078 14.25 C 17.234 14.008 17.272 13.759 17.287 13.595 C 17.3 13.444 17.3 13.266 17.3 13.101 L 17.3 1.788 C 17.3 1.624 17.3 1.446 17.287 1.294 C 17.272 1.13 17.234 0.881 17.078 0.639 C 16.884 0.337 16.581 0.121 16.232 0.035 C 15.953 -0.033 15.705 0.012 15.545 0.051 C 15.397 0.088 15.229 0.146 15.074 0.199 L 8.25 2.545 L 4.771 2.545 C 3.967 2.544 3.389 2.544 2.891 2.678 C 1.545 3.038 0.494 4.089 0.133 5.435 C -0.001 5.934 0 6.511 0 7.315 L 0 7.574 C 0 8.378 -0.001 8.956 0.133 9.454 C 0.494 10.8 1.545 11.851 2.891 12.212 Z M 8.693 4.296 L 15.5 1.956 L 15.5 12.934 L 8.693 10.594 C 8.418 10.499 8.114 10.544 7.877 10.712 C 7.641 10.881 7.5 11.154 7.5 11.445 L 7.5 16.195 C 7.5 16.665 7.12 17.045 6.65 17.045 C 6.181 17.045 5.8 16.665 5.8 16.195 L 5.8 11.445 C 5.8 10.948 5.397 10.545 4.9 10.545 L 4.8 10.545 C 3.911 10.545 3.625 10.539 3.41 10.487 C 2.642 10.303 2.042 9.703 1.858 8.935 C 1.806 8.72 1.8 8.434 1.8 7.545 L 1.8 7.345 C 1.8 6.456 1.806 6.17 1.858 5.955 C 2.042 5.187 2.642 4.587 3.41 4.403 C 3.625 4.351 3.911 4.345 4.8 4.345 L 8.4 4.345 C 8.5 4.345 8.599 4.329 8.693 4.296 Z" fill="currentColor" fill-rule="evenodd"></path>
  <path d="M 20.8 4.695 C 20.8 4.198 20.397 3.795 19.9 3.795 C 19.403 3.795 19 4.198 19 4.695 L 19 10.195 C 19 10.692 19.403 11.095 19.9 11.095 C 20.397 11.095 20.8 10.692 20.8 10.195 L 20.8 4.695 Z" fill="currentColor" fill-rule="nonzero"></path>
</svg>