<svg xmlns="http://www.w3.org/2000/svg" width="19.300" height="19.300" viewBox="0 0 19.300 19.300" fill="none">
  <path d="M 5 7.65 C 5 7.153 5.403 6.75 5.9 6.75 L 13.4 6.75 C 13.897 6.75 14.3 7.153 14.3 7.65 C 14.3 8.147 13.897 8.55 13.4 8.55 L 5.9 8.55 C 5.403 8.55 5 8.147 5 7.65 Z" fill="currentColor" fill-rule="nonzero"></path>
  <path d="M 5 11.65 C 5 11.153 5.403 10.75 5.9 10.75 L 10.4 10.75 C 10.897 10.75 11.3 11.153 11.3 11.65 C 11.3 12.147 10.897 12.55 10.4 12.55 L 5.9 12.55 C 5.403 12.55 5 12.147 5 11.65 Z" fill="currentColor" fill-rule="nonzero"></path>
  <path d="M 9.65 0 C 4.32 0 0 4.32 0 9.65 C 0 14.98 4.32 19.3 9.65 19.3 C 11.188 19.3 12.645 18.939 13.937 18.298 L 15.75 18.792 C 16.16 18.904 16.526 19.004 16.826 19.057 C 17.131 19.11 17.517 19.147 17.902 19 C 18.408 18.807 18.807 18.408 19 17.903 C 19.147 17.517 19.11 17.131 19.057 16.826 C 19.003 16.526 18.904 16.16 18.792 15.75 L 18.297 13.937 C 18.939 12.645 19.3 11.188 19.3 9.65 C 19.3 4.32 14.979 0 9.65 0 Z M 1.8 9.65 C 1.8 5.315 5.315 1.8 9.65 1.8 C 13.985 1.8 17.5 5.315 17.5 9.65 C 17.5 11.011 17.154 12.289 16.547 13.403 C 16.435 13.607 16.407 13.847 16.468 14.071 L 17.321 17.199 C 17.328 17.224 17.326 17.24 17.323 17.251 C 17.319 17.264 17.31 17.281 17.295 17.296 C 17.281 17.31 17.264 17.319 17.251 17.323 C 17.24 17.326 17.224 17.328 17.198 17.321 L 14.071 16.468 C 13.847 16.407 13.607 16.435 13.403 16.547 C 12.289 17.154 11.011 17.5 9.65 17.5 C 5.315 17.5 1.8 13.986 1.8 9.65 Z" fill="currentColor" fill-rule="evenodd"></path>
</svg>