<svg xmlns="http://www.w3.org/2000/svg" width="18.942" height="19.139" viewBox="0 0 18.942 19.139" fill="none">
  <path d="M 7.161 0.281 C 7.416 0.551 7.48 0.949 7.321 1.284 C 6.827 2.331 6.55 3.502 6.55 4.739 C 6.55 9.213 10.176 12.839 14.65 12.839 C 15.732 12.839 16.762 12.628 17.703 12.245 C 18.046 12.105 18.441 12.19 18.696 12.459 C 18.951 12.729 19.015 13.127 18.856 13.463 C 17.272 16.816 13.858 19.139 9.9 19.139 C 4.432 19.139 0 14.706 0 9.239 C 0 5.09 2.552 1.539 6.168 0.066 C 6.512 -0.073 6.906 0.012 7.161 0.281 Z M 4.932 2.84 C 3.026 4.323 1.8 6.638 1.8 9.239 C 1.8 13.712 5.426 17.339 9.9 17.339 C 12.343 17.339 14.534 16.257 16.02 14.545 C 15.572 14.607 15.115 14.639 14.65 14.639 C 9.182 14.639 4.75 10.207 4.75 4.739 C 4.75 4.09 4.813 3.455 4.932 2.84 Z" fill="currentColor" fill-rule="evenodd"></path>
</svg>