<svg xmlns="http://www.w3.org/2000/svg" width="19.658" height="19.658" viewBox="0 0 19.658 19.658" fill="none">
  <path d="M 13.889 19.569 C 11.705 19.127 8.372 17.904 5.063 14.595 C 1.754 11.286 0.531 7.952 0.088 5.768 C -0.279 3.955 0.543 2.286 1.707 1.121 L 1.979 0.849 C 3.246 -0.418 5.348 -0.244 6.389 1.215 L 7.814 3.209 C 8.496 4.164 8.388 5.472 7.558 6.301 L 6.729 7.13 C 6.981 7.736 7.625 8.955 9.164 10.494 C 10.702 12.032 11.921 12.677 12.527 12.928 L 13.356 12.099 C 14.186 11.27 15.494 11.162 16.448 11.843 L 18.443 13.268 C 19.901 14.31 20.075 16.411 18.808 17.679 L 18.536 17.951 C 17.372 19.115 15.702 19.936 13.889 19.569 Z M 6.335 13.322 C 9.358 16.344 12.355 17.422 14.247 17.805 C 15.283 18.015 16.372 17.569 17.263 16.678 L 17.535 16.406 C 18.016 15.925 17.95 15.128 17.397 14.733 L 15.402 13.308 C 15.164 13.138 14.837 13.165 14.629 13.372 L 13.785 14.217 C 13.343 14.659 12.634 14.909 11.93 14.629 C 11.119 14.306 9.66 13.535 7.891 11.767 C 6.122 9.998 5.352 8.539 5.029 7.728 C 4.749 7.024 4.999 6.315 5.441 5.873 L 6.285 5.028 C 6.493 4.821 6.52 4.494 6.349 4.255 L 4.925 2.261 C 4.53 1.708 3.732 1.642 3.252 2.122 L 2.98 2.394 C 2.089 3.286 1.643 4.375 1.853 5.411 C 2.236 7.302 3.313 10.3 6.335 13.322 Z" fill="currentColor" fill-rule="evenodd"></path>
</svg>