<svg xmlns="http://www.w3.org/2000/svg" width="18.800" height="18.803" viewBox="0 0 18.800 18.803" fill="none">
  <path d="M 0 9.4 C 0 4.209 4.209 0 9.4 0 C 11.217 0 12.915 0.516 14.353 1.409 L 15.302 0.46 C 15.559 0.202 15.947 0.125 16.283 0.265 C 16.619 0.404 16.838 0.732 16.838 1.096 L 16.838 4.278 C 16.838 4.517 16.744 4.746 16.575 4.915 C 16.406 5.083 16.177 5.178 15.938 5.178 L 12.756 5.178 C 12.392 5.178 12.064 4.959 11.925 4.623 C 11.786 4.286 11.863 3.899 12.12 3.642 L 13.037 2.725 C 11.957 2.135 10.718 1.8 9.4 1.8 C 5.203 1.8 1.8 5.203 1.8 9.4 C 1.8 9.91 1.85 10.406 1.945 10.886 C 2.042 11.374 1.725 11.848 1.237 11.944 C 0.75 12.041 0.276 11.724 0.179 11.236 C 0.062 10.642 0 10.028 0 9.4 Z" fill="currentColor" fill-rule="nonzero"></path>
  <path d="M 17.563 6.859 C 18.05 6.763 18.524 7.08 18.621 7.567 C 18.738 8.162 18.8 8.775 18.8 9.403 C 18.8 14.594 14.591 18.803 9.4 18.803 C 7.583 18.803 5.886 18.287 4.449 17.394 L 3.495 18.348 C 3.238 18.605 2.851 18.682 2.515 18.543 C 2.178 18.403 1.959 18.075 1.959 17.711 L 1.959 14.529 C 1.959 14.291 2.054 14.062 2.223 13.893 C 2.391 13.724 2.62 13.629 2.859 13.629 L 6.041 13.629 C 6.405 13.629 6.733 13.848 6.873 14.185 C 7.012 14.521 6.935 14.908 6.677 15.166 L 5.764 16.079 C 6.844 16.668 8.083 17.003 9.4 17.003 C 13.597 17.003 17 13.6 17 9.403 C 17 8.894 16.95 8.397 16.855 7.917 C 16.758 7.429 17.075 6.956 17.563 6.859 Z" fill="currentColor" fill-rule="nonzero"></path>
</svg>