<svg xmlns="http://www.w3.org/2000/svg" width="19.484" height="19.480" viewBox="0 0 19.484 19.480" fill="none">
  <path d="M 5.297 10.63 C 4.87 10.273 4.248 10.273 3.821 10.63 C 3.634 10.786 3.53 10.998 3.429 11.213 C 3.156 11.799 3.052 12.017 2.929 12.209 C 2.65 12.643 2.281 13.012 1.846 13.291 C 1.654 13.415 1.437 13.518 0.851 13.792 C 0.635 13.892 0.424 13.997 0.268 14.183 C -0.089 14.61 -0.089 15.232 0.268 15.659 C 0.424 15.846 0.635 15.95 0.851 16.051 C 1.437 16.324 1.654 16.428 1.846 16.551 C 2.281 16.83 2.65 17.199 2.929 17.634 C 3.052 17.826 3.156 18.043 3.429 18.629 C 3.53 18.845 3.634 19.056 3.821 19.212 C 4.248 19.569 4.87 19.569 5.297 19.212 C 5.483 19.056 5.588 18.845 5.688 18.629 C 5.962 18.043 6.065 17.826 6.189 17.634 C 6.468 17.199 6.837 16.83 7.271 16.551 C 7.463 16.428 7.681 16.324 8.267 16.051 C 8.482 15.95 8.694 15.846 8.85 15.659 C 9.207 15.232 9.207 14.61 8.85 14.183 C 8.694 13.997 8.482 13.892 8.267 13.792 C 7.681 13.518 7.463 13.415 7.271 13.291 C 6.837 13.012 6.468 12.643 6.189 12.209 C 6.065 12.017 5.962 11.799 5.688 11.213 C 5.588 10.998 5.483 10.786 5.297 10.63 Z M 4.443 13.182 C 4.483 13.12 4.521 13.057 4.559 12.991 C 4.596 13.057 4.635 13.12 4.675 13.182 C 5.093 13.833 5.647 14.387 6.298 14.805 C 6.36 14.845 6.424 14.884 6.489 14.921 C 6.424 14.959 6.36 14.997 6.298 15.037 C 5.647 15.455 5.093 16.009 4.675 16.66 C 4.635 16.723 4.596 16.786 4.559 16.851 C 4.521 16.786 4.483 16.723 4.443 16.66 C 4.025 16.009 3.471 15.455 2.82 15.037 C 2.757 14.997 2.694 14.959 2.629 14.921 C 2.694 14.884 2.757 14.845 2.82 14.805 C 3.471 14.387 4.025 13.833 4.443 13.182 Z" fill="currentColor" fill-rule="evenodd"></path>
  <path d="M 6.342 5.442 C 6.013 5.606 5.579 5.855 5.349 6.3 C 5.207 6.574 5.136 6.874 5.136 7.174 C 5.136 7.474 5.207 7.774 5.349 8.048 C 5.579 8.493 6.013 8.742 6.342 8.906 C 6.637 9.053 7.018 9.208 7.462 9.384 L 8.505 9.796 C 9.046 10.009 9.474 10.438 9.688 10.979 L 10.034 11.857 C 10.238 12.372 10.413 12.811 10.578 13.142 C 10.742 13.471 10.991 13.905 11.436 14.135 C 11.71 14.277 12.01 14.348 12.31 14.348 C 12.61 14.348 12.91 14.277 13.184 14.135 C 13.629 13.905 13.878 13.471 14.042 13.142 C 14.207 12.811 14.382 12.372 14.585 11.857 L 14.932 10.979 C 15.145 10.438 15.574 10.009 16.115 9.796 L 17.158 9.384 C 17.602 9.208 17.983 9.053 18.278 8.906 C 18.607 8.742 19.041 8.493 19.271 8.048 C 19.413 7.774 19.484 7.474 19.484 7.174 C 19.484 6.874 19.413 6.574 19.271 6.3 C 19.041 5.855 18.607 5.606 18.278 5.442 C 17.983 5.295 17.602 5.14 17.158 4.964 L 16.115 4.552 C 15.574 4.339 15.145 3.911 14.932 3.369 L 14.585 2.491 C 14.382 1.976 14.207 1.538 14.042 1.206 C 13.878 0.877 13.629 0.443 13.184 0.213 C 12.91 0.071 12.61 0 12.31 0 C 12.01 0 11.71 0.071 11.436 0.213 C 10.991 0.443 10.742 0.877 10.578 1.206 C 10.413 1.538 10.238 1.976 10.034 2.491 L 9.688 3.369 C 9.474 3.911 9.046 4.339 8.505 4.552 L 7.462 4.964 C 7.018 5.14 6.637 5.295 6.342 5.442 Z M 11.533 3.598 L 12.217 1.863 C 12.234 1.821 12.264 1.8 12.31 1.8 C 12.356 1.8 12.386 1.821 12.403 1.863 L 13.087 3.598 C 13.289 4.106 13.455 4.497 13.692 4.838 C 13.954 5.211 14.279 5.536 14.653 5.797 C 14.987 6.027 15.368 6.191 15.859 6.386 L 17.621 7.081 C 17.664 7.098 17.684 7.128 17.684 7.174 C 17.684 7.22 17.664 7.25 17.621 7.267 L 15.859 7.962 C 15.368 8.157 14.987 8.321 14.653 8.552 C 14.279 8.813 13.954 9.137 13.692 9.511 C 13.455 9.852 13.289 10.243 13.087 10.75 L 12.403 12.485 C 12.386 12.528 12.356 12.549 12.31 12.549 C 12.264 12.549 12.234 12.528 12.217 12.485 L 11.533 10.75 C 11.331 10.243 11.165 9.852 10.928 9.511 C 10.666 9.137 10.34 8.813 9.966 8.552 C 9.633 8.321 9.252 8.157 8.761 7.962 L 6.999 7.267 C 6.956 7.25 6.936 7.22 6.936 7.174 C 6.936 7.128 6.956 7.098 6.999 7.081 L 8.761 6.386 C 9.252 6.191 9.633 6.027 9.966 5.797 C 10.34 5.536 10.666 5.211 10.928 4.838 C 11.165 4.497 11.331 4.106 11.533 3.598 Z" fill="currentColor" fill-rule="evenodd"></path>
</svg>