<svg xmlns="http://www.w3.org/2000/svg" width="20.430" height="20.249" viewBox="0 0 20.430 20.249" fill="none">
  <path d="M 7.081 4.945 C 7.483 4.734 7.983 4.731 8.384 4.945 C 8.674 5.1 8.87 5.369 9.01 5.66 C 9.11 5.868 9.213 6.143 9.323 6.433 L 9.805 7.71 C 10.15 8.624 10.274 8.929 10.451 9.179 C 10.621 9.419 10.83 9.63 11.071 9.8 C 11.32 9.976 11.627 10.099 12.54 10.444 L 13.818 10.927 C 14.108 11.036 14.382 11.139 14.59 11.239 C 14.763 11.322 15.111 11.499 15.304 11.866 C 15.518 12.274 15.518 12.761 15.304 13.169 C 15.111 13.535 14.763 13.712 14.59 13.795 C 14.382 13.895 14.108 13.998 13.818 14.107 L 12.54 14.59 C 11.626 14.935 11.32 15.059 11.071 15.235 C 10.831 15.405 10.621 15.615 10.451 15.855 C 10.274 16.105 10.15 16.412 9.805 17.325 L 9.323 18.603 C 9.213 18.893 9.11 19.167 9.01 19.375 C 8.927 19.548 8.75 19.896 8.384 20.089 C 8.18 20.196 7.956 20.249 7.733 20.249 C 7.509 20.249 7.285 20.196 7.081 20.089 C 6.715 19.896 6.537 19.548 6.454 19.375 C 6.355 19.167 6.252 18.893 6.142 18.603 L 5.66 17.325 C 5.314 16.411 5.191 16.105 5.015 15.855 C 4.845 15.615 4.634 15.406 4.394 15.235 C 4.144 15.059 3.839 14.935 2.925 14.59 L 1.648 14.107 C 1.358 13.998 1.083 13.895 0.875 13.795 C 0.703 13.712 0.353 13.536 0.161 13.169 C -0.054 12.761 -0.053 12.274 0.161 11.866 C 0.353 11.499 0.703 11.322 0.875 11.239 C 1.083 11.139 1.358 11.036 1.648 10.927 L 2.925 10.444 C 3.838 10.099 4.145 9.976 4.394 9.8 C 4.634 9.63 4.845 9.419 5.015 9.179 C 5.191 8.929 5.314 8.623 5.66 7.71 L 6.142 6.433 C 6.251 6.143 6.355 5.868 6.454 5.66 C 6.537 5.488 6.715 5.138 7.081 4.945 Z" fill="currentColor" fill-rule="nonzero"></path>
  <path d="M 15.703 0 C 15.833 0 15.963 0.023 16.086 0.071 L 16.207 0.128 L 16.315 0.197 C 16.547 0.371 16.646 0.614 16.678 0.689 C 16.734 0.821 16.79 0.99 16.843 1.15 L 17.069 1.835 C 17.268 2.439 17.326 2.59 17.407 2.708 C 17.491 2.831 17.598 2.939 17.721 3.023 C 17.839 3.104 17.991 3.161 18.595 3.36 L 19.279 3.587 C 19.439 3.64 19.609 3.695 19.741 3.751 C 19.816 3.783 20.059 3.882 20.233 4.114 L 20.302 4.223 L 20.358 4.343 C 20.47 4.63 20.452 4.956 20.302 5.23 C 20.133 5.539 19.827 5.664 19.741 5.701 C 19.609 5.757 19.439 5.813 19.279 5.866 L 18.595 6.092 C 17.991 6.291 17.839 6.35 17.721 6.43 C 17.598 6.514 17.491 6.621 17.407 6.744 C 17.326 6.862 17.268 7.014 17.069 7.618 L 16.843 8.302 C 16.79 8.462 16.734 8.632 16.678 8.764 C 16.641 8.85 16.517 9.156 16.207 9.325 C 16.051 9.411 15.877 9.454 15.703 9.454 C 15.53 9.454 15.357 9.411 15.2 9.325 C 14.889 9.155 14.765 8.85 14.728 8.764 C 14.672 8.632 14.617 8.462 14.564 8.302 L 14.337 7.618 C 14.138 7.014 14.081 6.862 14 6.744 C 13.916 6.621 13.808 6.514 13.685 6.43 C 13.567 6.349 13.416 6.291 12.812 6.092 L 12.127 5.866 C 11.967 5.813 11.798 5.757 11.666 5.701 C 11.581 5.665 11.275 5.541 11.105 5.23 C 10.933 4.917 10.933 4.537 11.105 4.223 L 11.174 4.114 C 11.196 4.085 11.218 4.058 11.242 4.033 C 11.405 3.859 11.6 3.779 11.666 3.751 C 11.798 3.695 11.967 3.64 12.127 3.587 L 12.812 3.36 C 13.415 3.161 13.567 3.103 13.685 3.023 C 13.808 2.939 13.916 2.831 14 2.708 C 14.08 2.59 14.138 2.438 14.337 1.835 L 14.564 1.15 C 14.617 0.99 14.672 0.821 14.728 0.689 C 14.765 0.603 14.89 0.297 15.2 0.128 L 15.32 0.071 C 15.35 0.059 15.381 0.049 15.412 0.04 C 15.475 0.022 15.54 0.01 15.605 0.004 C 15.637 0.001 15.67 0 15.703 0 Z" fill="currentColor" fill-rule="nonzero"></path>
</svg>