<svg xmlns="http://www.w3.org/2000/svg" width="20.081" height="18.175" viewBox="0 0 20.081 18.175" fill="none">
  <path d="M 8.861 0.251 C 9.612 -0.084 10.469 -0.084 11.22 0.251 C 11.743 0.484 12.121 0.911 12.449 1.376 C 12.775 1.836 13.133 2.457 13.569 3.211 L 18.68 12.064 C 19.115 12.818 19.473 13.439 19.71 13.951 C 19.948 14.468 20.129 15.008 20.069 15.578 C 19.983 16.396 19.555 17.138 18.89 17.621 C 18.426 17.958 17.867 18.072 17.301 18.123 C 16.739 18.175 16.023 18.175 15.151 18.175 L 4.929 18.175 C 4.058 18.175 3.342 18.175 2.78 18.123 C 2.213 18.072 1.655 17.958 1.191 17.621 C 0.526 17.138 0.097 16.396 0.012 15.578 C -0.048 15.008 0.133 14.468 0.371 13.951 C 0.607 13.439 0.965 12.818 1.401 12.064 L 6.512 3.211 C 6.948 2.457 7.306 1.836 7.631 1.376 C 7.96 0.911 8.337 0.484 8.861 0.251 Z M 10.04 5.25 C 10.538 5.25 10.94 5.653 10.94 6.15 L 10.94 10.15 C 10.94 10.647 10.538 11.05 10.04 11.05 C 9.543 11.05 9.14 10.647 9.14 10.15 L 9.14 6.15 C 9.14 5.653 9.543 5.25 10.04 5.25 Z M 11.04 13.65 C 11.04 14.202 10.593 14.65 10.04 14.65 C 9.488 14.65 9.04 14.202 9.04 13.65 C 9.04 13.098 9.488 12.65 10.04 12.65 C 10.593 12.65 11.04 13.098 11.04 13.65 Z" fill="currentColor" fill-rule="evenodd"></path>
</svg>