<svg xmlns="http://www.w3.org/2000/svg" width="20.800" height="20.800" viewBox="0 0 20.800 20.800" fill="none">
  <path d="M 14.286 8.786 C 14.638 8.434 14.638 7.865 14.286 7.513 C 13.935 7.162 13.365 7.162 13.013 7.513 L 9.15 11.377 L 7.786 10.013 C 7.435 9.662 6.865 9.662 6.514 10.013 C 6.162 10.364 6.162 10.934 6.513 11.286 L 8.513 13.286 C 8.682 13.455 8.911 13.549 9.15 13.549 C 9.388 13.549 9.617 13.455 9.786 13.286 L 14.286 8.786 Z" fill="currentColor" fill-rule="nonzero"></path>
  <path d="M 8.425 0.827 C 9.511 -0.276 11.289 -0.275 12.375 0.827 L 13.488 1.956 C 13.672 2.144 13.924 2.248 14.187 2.246 L 15.773 2.234 C 17.32 2.223 18.577 3.48 18.566 5.027 L 18.554 6.613 C 18.552 6.876 18.656 7.128 18.844 7.312 L 19.973 8.425 C 21.075 9.511 21.075 11.289 19.973 12.375 L 18.844 13.488 C 18.656 13.672 18.552 13.925 18.554 14.187 L 18.566 15.773 C 18.577 17.32 17.32 18.577 15.773 18.566 L 14.187 18.554 C 13.924 18.552 13.672 18.656 13.487 18.844 L 12.375 19.973 C 11.289 21.076 9.511 21.076 8.425 19.973 L 7.312 18.844 C 7.128 18.656 6.875 18.552 6.613 18.554 L 5.027 18.566 C 3.48 18.577 2.223 17.32 2.234 15.773 L 2.246 14.187 C 2.248 13.925 2.144 13.672 1.956 13.488 L 0.827 12.375 C -0.276 11.289 -0.276 9.511 0.827 8.425 L 1.956 7.312 C 2.144 7.128 2.248 6.876 2.246 6.613 L 2.234 5.027 C 2.223 3.48 3.48 2.223 5.027 2.234 L 6.613 2.246 C 6.875 2.248 7.128 2.144 7.312 1.956 L 8.425 0.827 Z M 11.092 2.09 C 10.712 1.703 10.088 1.703 9.708 2.09 L 8.595 3.22 C 8.069 3.754 7.349 4.052 6.599 4.046 L 5.013 4.034 C 4.471 4.03 4.03 4.471 4.034 5.013 L 4.046 6.599 C 4.052 7.349 3.754 8.069 3.22 8.595 L 2.09 9.708 C 1.703 10.088 1.703 10.712 2.09 11.092 L 3.22 12.205 C 3.754 12.731 4.052 13.451 4.046 14.201 L 4.034 15.787 C 4.03 16.329 4.471 16.77 5.013 16.766 L 6.599 16.754 C 7.349 16.748 8.069 17.046 8.595 17.58 L 9.708 18.71 C 10.088 19.097 10.712 19.097 11.092 18.71 L 12.205 17.58 C 12.731 17.046 13.451 16.748 14.201 16.754 L 15.787 16.766 C 16.329 16.77 16.77 16.329 16.766 15.787 L 16.754 14.201 C 16.748 13.451 17.046 12.731 17.58 12.205 L 18.71 11.092 C 19.097 10.712 19.097 10.088 18.71 9.708 L 17.58 8.595 C 17.046 8.069 16.748 7.349 16.754 6.599 L 16.766 5.013 C 16.77 4.471 16.329 4.03 15.787 4.034 L 14.201 4.046 C 13.451 4.052 12.731 3.753 12.205 3.22 L 11.092 2.09 Z" fill="currentColor" fill-rule="evenodd"></path>
</svg>